<svg width="123" height="139" viewBox="0 0 123 139" fill="none" xmlns="http://www.w3.org/2000/svg">
<path d="M61.5055 138.024C43.6608 138.024 34.0278 102.508 34.0278 69.0861C34.0278 35.6637 43.6608 0.147705 61.5055 0.147705C79.3503 0.147705 88.9833 35.6637 88.9833 69.0861C88.9833 102.508 79.3503 138.024 61.5055 138.024ZM61.5055 8.82602C53.6517 8.82602 42.7061 31.7476 42.7061 69.0861C42.7061 106.425 53.6625 129.346 61.5055 129.346C69.3486 129.346 80.3049 106.425 80.3049 69.0861C80.3049 31.7476 69.3594 8.82602 61.5055 8.82602Z" fill="#6F2C7A"/>
<path d="M19.9146 111.404C11.5075 111.404 4.96621 109.05 1.79862 103.561C-1.08692 98.5707 -1.92221 89.5453 10.4552 74.9549C19.1553 64.6928 32.4005 54.1595 47.7612 45.2967C76.7033 28.591 112.284 19.175 121.201 34.6224C124.087 39.6124 124.922 48.6379 112.545 63.2283C103.845 73.4904 90.5995 84.0237 75.2389 92.8864C56.5913 103.658 35.1667 111.404 19.9146 111.404ZM103.02 35.3709C91.9446 35.3709 73.5683 40.4043 52.1112 52.7926C37.5858 61.178 25.1433 71.0388 17.0833 80.5524C10.2817 88.569 7.30935 95.7177 9.32706 99.2108C13.254 106.012 38.5838 104.027 70.9106 85.3688C85.4359 76.9834 97.8784 67.1227 105.938 57.6091C112.74 49.5925 115.712 42.4437 113.695 38.9507C112.371 36.6727 108.629 35.3709 103.02 35.3709Z" fill="#9ECC45"/>
<path d="M103.096 111.404C87.8442 111.404 66.4304 103.658 47.7721 92.8864C32.4006 84.0128 19.1553 73.4795 10.4553 63.2283C-1.92213 48.627 -1.07599 39.6124 1.7987 34.6115C10.7265 19.1533 46.2968 28.5693 75.2389 45.2859C90.5996 54.1594 103.856 64.6927 112.545 74.944C124.922 89.5453 124.076 98.5599 121.201 103.55C118.034 109.05 111.503 111.404 103.096 111.404ZM19.9906 35.3709C14.3714 35.3709 10.6397 36.6618 9.31629 38.9507C7.29858 42.4437 10.2709 49.5925 17.0725 57.6091C25.1434 67.1227 37.5751 76.9834 52.1004 85.3688C84.438 104.038 109.768 106.012 113.684 99.2107C115.702 95.7177 112.729 88.569 105.928 80.5524C97.8568 71.0388 85.4251 61.178 70.8998 52.7926C49.4535 40.4152 31.0772 35.3709 19.9906 35.3709Z" fill="#F79229"/>
<path d="M61.5055 77.667C66.2445 77.667 70.0862 73.8253 70.0862 69.0863C70.0862 64.3473 66.2445 60.5056 61.5055 60.5056C56.7665 60.5056 52.9248 64.3473 52.9248 69.0863C52.9248 73.8253 56.7665 77.667 61.5055 77.667Z" fill="#F54480"/>
</svg>
