<svg width="159" height="131" viewBox="0 0 159 131" fill="none" xmlns="http://www.w3.org/2000/svg">
<path d="M133.572 106.234C133.586 107.555 133.254 109.282 132.907 110.705C130.488 120.715 119.746 131.948 104.626 130.926C90.9233 130.002 79.7622 123.263 79.7622 113.813C79.7622 104.363 90.896 96.7002 104.626 96.7002C118.357 96.7002 133.486 96.7842 133.572 106.234Z" fill="#EA596E"/>
<path d="M104.626 98.2869C97.2509 98.2869 80.4181 100.378 76.555 100.378C69.7308 100.378 64.1958 104.764 64.1958 110.178C64.1958 112.782 65.4987 115.134 67.5851 116.888C67.5851 116.888 72.168 121.597 80.4227 119.338C84.0352 118.349 89.9119 111.004 100.258 109.837C105.41 109.254 115.063 113.337 132.028 113.435C132.757 111.83 132.907 110.714 132.907 110.714C132.907 101.255 118.357 98.2869 104.626 98.2869Z" fill="#DD2E44"/>
<path d="M132.907 110.705C132.907 110.705 142.857 108.637 149.043 100.303C156.255 90.582 155.307 80.18 155.307 80.18C162.614 66.18 153.029 53.0527 153.029 53.0527C152.077 38.2734 143.157 32.1507 143.157 32.1507C137.367 18.0527 124.557 14.2634 124.557 14.2634C114.498 2.20938 96.6544 2.59671 96.6544 2.59671C96.6544 2.59671 79.9355 -3.67995 56.9846 3.37605C53.1898 4.54271 40.4707 7.26338 31.1682 13.0967C1.84869 31.4834 -0.369867 60.1554 0.0401332 64.8174C2.31336 90.8714 20.1575 95.538 31.5464 98.2587C34.2022 105.646 43.9785 119.259 61.5356 114.205C83.1745 110.317 92.2856 103.705 97.6019 103.705C102.918 103.705 117.724 109.538 132.907 110.705Z" fill="#F4ABBA"/>
<path d="M78.1816 68.812C88.787 62.9553 94.5361 63.5013 99.611 63.9727C101.224 64.122 102.75 64.2387 104.294 64.2293C113.332 64.0193 120.653 60.118 123.892 56.3427C124.263 55.8735 124.443 55.2754 124.394 54.6735C124.344 54.0716 124.069 53.5127 123.626 53.1139C123.183 52.7152 122.607 52.5074 122.018 52.5343C121.429 52.5612 120.873 52.8205 120.466 53.258C117.97 56.17 111.815 59.3853 104.189 59.5627C102.823 59.6047 101.451 59.4647 100.03 59.3293C94.5862 58.8113 87.8257 58.1767 76.0177 64.7053C72.9883 66.3807 68.8336 67.0013 64.3327 67.468C54.3242 52.67 60.3466 39.7807 62.0686 36.71C62.2372 36.7193 62.4012 36.7753 62.5743 36.7753C64.3965 36.7753 66.2279 36.318 67.8861 35.3567C68.3912 35.0416 68.757 34.5377 68.9059 33.9514C69.0549 33.3651 68.9754 32.7424 68.6843 32.215C68.3932 31.6877 67.9132 31.297 67.346 31.1256C66.7787 30.9542 66.1686 31.0156 65.6447 31.2967C64.2116 32.1049 62.5335 32.3294 60.9458 31.9254C59.3581 31.5213 57.9777 30.5186 57.0803 29.1173C56.7415 28.628 56.2318 28.2911 55.6569 28.1766C55.0821 28.0622 54.4863 28.1789 53.9932 28.5026C53.5002 28.8263 53.1478 29.3321 53.0092 29.915C52.8706 30.4978 52.9565 31.113 53.2491 31.6327C54.3287 33.364 55.8503 34.666 57.5677 35.5387C55.1943 40.476 50.6888 53.4587 59.2624 67.9767C53.2308 68.5833 47.1902 69.456 42.4615 72.578C39.138 74.8087 36.2389 77.641 33.9062 80.936C31.0407 80.432 20.5493 77.786 18.718 65.858C19.8568 64.9527 20.7771 63.758 21.3465 62.2833C21.4566 61.9984 21.5108 61.694 21.506 61.3876C21.5013 61.0811 21.4377 60.7787 21.3188 60.4974C21.1999 60.2162 21.0281 59.9617 20.8132 59.7485C20.5984 59.5352 20.3446 59.3674 20.0664 59.2547C19.7882 59.1419 19.4911 59.0864 19.1919 59.0913C18.8928 59.0961 18.5975 59.1613 18.323 59.2831C18.0485 59.4049 17.8 59.5808 17.5919 59.8009C17.3837 60.0211 17.2199 60.281 17.1098 60.566C16.9376 61.0565 16.6634 61.5029 16.3064 61.8743C15.9493 62.2458 15.5178 62.5334 15.0416 62.7173C14.5591 62.8816 14.0477 62.9374 13.5423 62.8811C13.0368 62.8247 12.5491 62.6574 12.1124 62.3907C11.851 62.2417 11.5635 62.147 11.2663 62.1119C10.9691 62.0768 10.6681 62.102 10.3805 62.1861C9.79953 62.3559 9.30822 62.7551 9.01463 63.296C8.72103 63.8369 8.6492 64.4751 8.81494 65.0702C8.98068 65.6653 9.37042 66.1686 9.8984 66.4693C11.1922 67.2067 12.5771 67.58 13.9528 67.58C14.1214 67.58 14.2808 67.5007 14.4494 67.4913C16.6178 78.752 25.3053 83.6987 31.4507 85.1967C30.6461 86.9508 30.1363 88.8314 29.9428 90.7593C29.8898 91.3757 30.0778 91.9884 30.4657 92.4627C30.8535 92.937 31.4094 93.2341 32.0111 93.2887L32.2161 93.298C32.7854 93.2979 33.3341 93.0794 33.754 92.6856C34.1739 92.2917 34.4346 91.751 34.4847 91.17C34.9767 85.5093 40.2475 79.5967 44.9306 76.4933C49.3222 73.5953 55.7501 72.984 61.973 72.3913C68.0091 71.8267 73.7126 71.2853 78.1816 68.812ZM136.793 61.7933C136.65 62.0624 136.559 62.3577 136.527 62.6626C136.495 62.9674 136.522 63.2758 136.606 63.57C136.69 63.8642 136.83 64.1386 137.018 64.3775C137.206 64.6163 137.437 64.8149 137.7 64.962C137.963 65.1091 138.251 65.2017 138.549 65.2347C138.846 65.2676 139.147 65.2402 139.434 65.1539C140.014 64.9798 140.503 64.5767 140.793 64.0333C140.88 63.8747 149.185 47.938 133.636 37.228C133.135 36.8827 132.52 36.7556 131.927 36.8746C131.334 36.9936 130.812 37.349 130.475 37.8627C130.138 38.3763 130.014 39.0061 130.13 39.6134C130.246 40.2208 130.593 40.756 131.094 41.1013C143.139 49.3987 137.058 61.2893 136.793 61.7933ZM42.3704 24.1147C42.732 24.1159 43.0885 24.0284 43.4103 23.8596C43.7321 23.6907 44.0097 23.4453 44.22 23.144C50.8255 13.7313 59.9731 16.9513 60.3603 17.1007C60.9214 17.2904 61.5324 17.2493 62.0645 16.9862C62.5966 16.7231 63.008 16.2584 63.212 15.6904C63.416 15.1223 63.3965 14.4953 63.1576 13.9417C62.9188 13.3881 62.4793 12.9513 61.932 12.7233C57.5586 11.062 47.459 10.5393 40.5209 20.4233C40.2773 20.7719 40.1322 21.1825 40.1015 21.61C40.0708 22.0375 40.1556 22.4655 40.3467 22.8468C40.5378 23.2282 40.8277 23.5483 41.1847 23.7719C41.5417 23.9956 41.9519 24.1142 42.3704 24.1147ZM101.921 15.304C112.057 14.4593 116.667 21.9867 116.877 22.3413C117.183 22.8754 117.684 23.2629 118.269 23.4187C118.559 23.4959 118.86 23.5138 119.157 23.4714C119.453 23.4291 119.739 23.3274 119.997 23.172C120.255 23.0167 120.481 22.8107 120.661 22.566C120.842 22.3213 120.974 22.0425 121.049 21.7457C121.124 21.4489 121.142 21.1397 121.1 20.836C121.059 20.5322 120.96 20.2398 120.808 19.9753C120.562 19.5507 114.704 9.62467 101.565 10.6513C101.267 10.6752 100.976 10.7591 100.71 10.8981C100.443 11.0371 100.206 11.2285 100.012 11.4614C99.619 11.9318 99.4249 12.5427 99.472 13.1597C99.5191 13.7767 99.8036 14.3492 100.263 14.7513C100.722 15.1535 101.318 15.3523 101.921 15.304ZM143.604 83.4887C142.483 83.4233 141.249 84.3333 141.149 85.6213C141.139 85.7053 140.415 93.6433 132.447 96.3267C131.926 96.4943 131.482 96.8485 131.195 97.3244C130.908 97.8004 130.798 98.3662 130.884 98.9185C130.971 99.4707 131.249 99.9725 131.668 100.332C132.086 100.692 132.617 100.885 133.163 100.877C133.404 100.877 133.644 100.837 133.873 100.76C144.679 97.1293 145.654 86.4613 145.69 86.0087C145.738 85.3914 145.546 84.7799 145.155 84.3077C144.764 83.8354 144.206 83.541 143.604 83.4887Z" fill="#EA596E"/>
<path d="M30.8494 60.8133C30.7598 61.1127 30.7299 61.4275 30.7616 61.739C30.7933 62.0505 30.8858 62.3522 31.0337 62.6263C31.1816 62.9003 31.3819 63.1411 31.6226 63.3342C31.8632 63.5273 32.1394 63.6688 32.4345 63.7502C32.7297 63.8317 33.0379 63.8515 33.3406 63.8084C33.6434 63.7652 33.9346 63.6601 34.1969 63.4993C34.4592 63.3385 34.6872 63.1252 34.8674 62.8722C35.0475 62.6192 35.1761 62.3317 35.2455 62.0267C35.6841 60.4098 36.704 59.0229 38.1002 58.145C39.4964 57.2672 41.1653 56.9633 42.7712 57.2947C43.0641 57.3575 43.3661 57.3606 43.6602 57.3038C43.9542 57.2471 44.2344 57.1315 44.4848 56.9638C44.7352 56.7961 44.951 56.5795 45.1197 56.3264C45.2884 56.0733 45.4068 55.7887 45.4681 55.4887C45.5295 55.1887 45.5325 54.8793 45.4771 54.5781C45.4217 54.2769 45.3089 53.9898 45.1452 53.7333C44.9815 53.4768 44.77 53.2558 44.523 53.0829C44.2759 52.9101 43.998 52.7888 43.7051 52.726C41.8094 52.3321 39.8449 52.4707 38.0198 53.1273C32.708 43.822 33.7421 34.6473 33.7558 34.5493C33.8336 33.9365 33.6719 33.317 33.3058 32.8258C32.9398 32.3345 32.3991 32.0114 31.8015 31.9267C31.2048 31.8481 30.6019 32.013 30.1229 32.3858C29.6439 32.7586 29.3272 33.3094 29.2412 33.9193C29.182 34.372 27.9657 44.7273 34.0838 55.4513C32.522 56.8805 31.3984 58.7431 30.8494 60.8133ZM81.7759 49.2867C82.6853 48.439 83.8741 47.9752 85.1035 47.9881C86.333 48.0011 87.5121 48.49 88.4043 49.3567C88.8391 49.7851 89.4217 50.0201 90.025 50.0105C90.6282 50.0008 91.2034 49.7474 91.625 49.3053C92.0461 48.8616 92.2778 48.2647 92.2692 47.646C92.2607 47.0273 92.0126 46.4374 91.5795 46.006C90.5505 45.0032 89.3073 44.2602 87.9487 43.836C89.2971 39.0947 88.7641 36.99 87.5114 33.0467C87.2634 32.2751 87.025 31.5004 86.7961 30.7227L86.6595 30.256C85.0012 24.6187 83.9034 20.8993 87.0558 15.6493C87.3724 15.1221 87.4715 14.4876 87.3314 13.8855C87.1913 13.2834 86.8234 12.7629 86.3087 12.4387C85.794 12.1144 85.1746 12.0129 84.5868 12.1564C83.9991 12.2999 83.491 12.6768 83.1745 13.204C78.9469 20.2413 80.5004 25.51 82.2998 31.6093L82.4365 32.076C82.7052 32.9813 82.9512 33.7747 83.179 34.4887C84.3042 38.04 84.6459 39.23 83.2701 43.5233C81.5496 43.844 79.9537 44.6598 78.669 45.8753C78.2432 46.3013 77.997 46.881 77.9831 47.4905C77.9692 48.1 78.1888 48.6908 78.5948 49.1366C79.0008 49.5824 79.561 49.8477 80.1555 49.8757C80.75 49.9038 81.3316 49.6923 81.7759 49.2867ZM110.772 35.3567C112.125 35.3609 113.462 35.0564 114.685 34.4653C115.232 34.2017 115.654 33.7264 115.859 33.144C116.063 32.5616 116.034 31.9197 115.776 31.3597C115.519 30.7996 115.055 30.3672 114.486 30.1576C113.918 29.948 113.291 29.9784 112.745 30.242C111.625 30.7661 110.353 30.8376 109.184 30.4422C108.015 30.0467 107.035 29.2135 106.44 28.1093C106.304 27.829 106.115 27.5793 105.884 27.3753C105.652 27.1713 105.383 27.017 105.092 26.9216C104.802 26.8263 104.495 26.7918 104.191 26.8202C103.887 26.8486 103.592 26.9394 103.322 27.0871C103.053 27.2348 102.816 27.4365 102.624 27.6801C102.433 27.9237 102.291 28.2042 102.207 28.5051C102.124 28.8059 102.1 29.1209 102.138 29.4313C102.175 29.7417 102.273 30.0412 102.426 30.312C103.246 31.88 104.467 33.1167 105.888 33.9753C103.442 40.0653 104.832 46.5333 105.966 49.9633C106.053 50.2643 106.198 50.5443 106.393 50.7865C106.587 51.0287 106.828 51.2282 107.1 51.3729C107.372 51.5177 107.669 51.6048 107.975 51.629C108.28 51.6532 108.587 51.6141 108.878 51.5139C109.168 51.4137 109.436 51.2545 109.664 51.0459C109.893 50.8373 110.079 50.5835 110.21 50.2998C110.341 50.0161 110.414 49.7082 110.426 49.3946C110.439 49.081 110.389 48.7681 110.28 48.4747C109.515 46.1507 108.03 40.28 110.271 35.2867C110.444 35.296 110.603 35.3567 110.772 35.3567ZM132.625 79.3587C132.608 79.0522 132.531 78.7524 132.4 78.4764C132.268 78.2005 132.085 77.9541 131.86 77.7514C131.635 77.5486 131.373 77.3937 131.089 77.2955C130.805 77.1973 130.505 77.1578 130.206 77.1793C129.114 77.2567 128.017 77.1122 126.98 76.7542C125.942 76.3962 124.983 75.8318 124.159 75.0934C123.335 74.3549 122.662 73.457 122.177 72.4511C121.693 71.4453 121.407 70.3513 121.336 69.232C121.285 68.6184 121.003 68.0492 120.55 67.6444C120.097 67.2395 119.509 67.0307 118.908 67.062C118.306 67.1063 117.746 67.3926 117.349 67.8586C116.952 68.3245 116.751 68.9323 116.79 69.5493C116.977 72.3027 118.002 74.7853 119.56 76.806C115.897 81.2207 111.1 82.476 108.426 82.798C106.062 83.0873 103.993 82.84 101.602 82.5507C99.4105 82.294 96.9323 82 93.8664 82.0933L93.8436 82.098C93.7525 80.7633 93.4427 78.8173 92.4541 77.198C92.1143 76.7185 91.6094 76.389 91.0415 76.2763C90.4735 76.1636 89.885 76.2759 89.3949 76.5907C88.9048 76.9054 88.5496 77.3991 88.4013 77.9719C88.2529 78.5446 88.3223 79.1537 88.5956 79.676C89.206 80.6793 89.3199 82.28 89.3199 83.0593C87.0239 83.904 85.0377 85.1453 83.2428 86.3447C80.0357 88.482 77.5074 90.1713 73.7035 89.294C70.2595 88.4867 66.8109 88.3233 63.8862 88.7433C63.4307 87.572 62.7109 86.172 61.5994 85.094C61.1602 84.6689 60.5741 84.4399 59.9701 84.4574C59.3661 84.4749 58.7936 84.7374 58.3786 85.1873C57.9636 85.6372 57.74 86.2376 57.7571 86.8563C57.7742 87.4751 58.0305 88.0615 58.4697 88.4867C58.8615 88.8647 59.1713 89.4153 59.4218 89.966C54.397 92.0847 51.8778 95.6267 51.7594 95.7993C51.5177 96.1478 51.3743 96.5577 51.3449 96.984C51.3156 97.4104 51.4013 97.8369 51.5928 98.2166C51.7843 98.5964 52.0741 98.9149 52.4305 99.1371C52.7869 99.3594 53.1962 99.4768 53.6135 99.4767C53.9735 99.4776 54.3287 99.3915 54.6501 99.2252C54.9715 99.059 55.25 98.8174 55.463 98.52C55.4858 98.4827 57.9868 95.0527 62.9205 93.6667C65.4716 92.948 69.1297 93.0087 72.6967 93.8393C73.6944 94.0727 74.6191 94.152 75.5166 94.166C75.9403 95.1833 76.1042 96.392 76.127 96.84C76.1607 97.4347 76.4147 97.9938 76.8372 98.4032C77.2596 98.8126 77.8187 99.0413 78.4002 99.0427L78.5233 99.038C79.1244 99.0054 79.6884 98.7304 80.0922 98.273C80.4959 97.8157 80.7066 97.2133 80.678 96.5973C80.602 95.5104 80.4033 94.4361 80.0858 93.396C82.1859 92.6167 84.0127 91.3987 85.7301 90.2553C88.3359 88.5147 90.8005 86.8673 94.0213 86.76C96.7181 86.662 98.9412 86.928 101.087 87.1847C103.246 87.4413 105.369 87.6093 107.711 87.4693C108.125 88.65 108.093 90.2273 108.03 90.7547C107.991 91.0833 108.021 91.4165 108.117 91.7324C108.213 92.0484 108.373 92.34 108.587 92.5882C108.801 92.8363 109.063 93.0352 109.357 93.1721C109.652 93.3089 109.971 93.3804 110.294 93.382C110.846 93.3811 111.379 93.1748 111.794 92.8014C112.209 92.428 112.477 91.9129 112.549 91.352C112.716 89.8215 112.625 88.273 112.28 86.774C116.436 85.6443 120.161 83.2509 122.963 79.9093C125.221 81.3383 127.858 82.0119 130.507 81.8367C130.805 81.8165 131.096 81.7364 131.364 81.6009C131.631 81.4655 131.87 81.2773 132.067 81.0472C132.264 80.8171 132.414 80.5495 132.51 80.2598C132.606 79.9701 132.645 79.6639 132.625 79.3587Z" fill="#EA596E"/>
</svg>
