<svg width="70" height="69" viewBox="0 0 70 69" fill="none" xmlns="http://www.w3.org/2000/svg">
<path d="M35.0003 0C16.1768 0 0.952637 15.3214 0.952637 34.2422C0.952637 51.3146 13.4043 65.5174 29.6986 68.0953V44.1646H21.0407V34.2422H29.6986V26.7031C29.6986 18.0939 34.8057 13.3759 42.5394 13.3759C46.2846 13.3759 50.1758 14.0568 50.1758 14.0568V22.4714H45.8955C41.6639 22.4714 40.3506 25.098 40.3506 27.8218V34.2422H49.7867L48.2788 44.1646H40.3506V68.0953C56.6448 65.5174 69.0965 51.3633 69.0965 34.2422C69.0965 15.3214 53.8724 0 35.0489 0H35.0003Z" fill="#5F2A78"/>
</svg>
