<svg width="69" height="69" viewBox="0 0 69 69" fill="none" xmlns="http://www.w3.org/2000/svg">
<path d="M34.0476 23.8333C31.3386 23.8333 28.7406 24.9095 26.825 26.825C24.9095 28.7406 23.8333 31.3386 23.8333 34.0476C23.8333 36.7566 24.9095 39.3547 26.825 41.2702C28.7406 43.1858 31.3386 44.2619 34.0476 44.2619C36.7566 44.2619 39.3547 43.1858 41.2702 41.2702C43.1858 39.3547 44.2619 36.7566 44.2619 34.0476C44.2619 31.3386 43.1858 28.7406 41.2702 26.825C39.3547 24.9095 36.7566 23.8333 34.0476 23.8333ZM34.0476 17.0238C38.5626 17.0238 42.8927 18.8174 46.0853 22.01C49.2779 25.2026 51.0714 29.5326 51.0714 34.0476C51.0714 38.5626 49.2779 42.8927 46.0853 46.0853C42.8927 49.2779 38.5626 51.0714 34.0476 51.0714C29.5326 51.0714 25.2026 49.2779 22.01 46.0853C18.8174 42.8927 17.0238 38.5626 17.0238 34.0476C17.0238 29.5326 18.8174 25.2026 22.01 22.01C25.2026 18.8174 29.5326 17.0238 34.0476 17.0238ZM56.1786 16.1726C56.1786 17.3014 55.7302 18.3839 54.9321 19.182C54.1339 19.9802 53.0514 20.4286 51.9226 20.4286C50.7939 20.4286 49.7114 19.9802 48.9132 19.182C48.1151 18.3839 47.6667 17.3014 47.6667 16.1726C47.6667 15.0439 48.1151 13.9614 48.9132 13.1632C49.7114 12.3651 50.7939 11.9167 51.9226 11.9167C53.0514 11.9167 54.1339 12.3651 54.9321 13.1632C55.7302 13.9614 56.1786 15.0439 56.1786 16.1726ZM34.0476 6.80953C25.6242 6.80953 24.2487 6.83336 20.3298 7.007C17.6605 7.13298 15.8696 7.49048 14.2081 8.13738C12.8176 8.64789 11.5606 9.46613 10.5309 10.5309C9.46526 11.5605 8.6459 12.8175 8.13398 14.2081C7.48707 15.8764 7.12957 17.6639 7.007 20.3298C6.82995 24.0887 6.80612 25.4029 6.80612 34.0476C6.80612 42.4744 6.82996 43.8465 7.0036 47.7654C7.12957 50.4313 7.48707 52.2257 8.13057 53.8838C8.70938 55.3649 9.39034 56.4305 10.5207 57.5609C11.6681 58.7049 12.7338 59.3893 14.1979 59.9545C15.8798 60.6048 17.6707 60.9657 20.3264 61.0883C24.0853 61.2653 25.3995 61.2857 34.0442 61.2857C42.471 61.2857 43.8431 61.2619 47.762 61.0883C50.4245 60.9623 52.2154 60.6048 53.8804 59.9613C55.2696 59.4483 56.5261 58.6304 57.5575 57.5677C58.7049 56.4237 59.3893 55.358 59.9545 53.8906C60.6014 52.2154 60.9623 50.4245 61.0849 47.762C61.2619 44.0066 61.2823 42.6889 61.2823 34.0476C61.2823 25.6242 61.2585 24.2487 61.0849 20.3298C60.9589 17.6673 60.598 15.8696 59.9545 14.2081C59.4412 12.819 58.6234 11.5625 57.5609 10.5309C56.5318 9.46472 55.2747 8.64526 53.8838 8.13398C52.2154 7.48707 50.4245 7.12957 47.762 7.007C44.0066 6.82995 42.6957 6.80953 34.0476 6.80953ZM34.0476 0C43.2984 0 44.4526 0.0340474 48.0855 0.204286C51.7081 0.374524 54.18 0.94312 56.3488 1.7875C58.596 2.65231 60.489 3.82355 62.3821 5.71319C64.1134 7.41522 65.453 9.47406 66.3078 11.7464C67.1487 13.9153 67.7207 16.3871 67.891 20.0132C68.051 23.6427 68.0953 24.7969 68.0953 34.0476C68.0953 43.2984 68.0612 44.4526 67.891 48.0821C67.7207 51.7081 67.1487 54.1766 66.3078 56.3488C65.4554 58.6224 64.1154 60.6817 62.3821 62.3821C60.6796 64.1128 58.6209 65.4523 56.3488 66.3078C54.18 67.1487 51.7081 67.7207 48.0855 67.891C44.4526 68.051 43.2984 68.0953 34.0476 68.0953C24.7969 68.0953 23.6427 68.0612 20.0098 67.891C16.3871 67.7207 13.9187 67.1487 11.7464 66.3078C9.47316 65.4548 7.41396 64.1149 5.71319 62.3821C3.98164 60.6803 2.64196 58.6213 1.7875 56.3488C0.94312 54.18 0.374525 51.7081 0.204286 48.0821C0.0408578 44.4526 0 43.2984 0 34.0476C0 24.7969 0.0340482 23.6427 0.204286 20.0132C0.374525 16.3837 0.94312 13.9187 1.7875 11.7464C2.6395 9.47266 3.9795 7.41326 5.71319 5.71319C7.41445 3.98096 9.47351 2.64117 11.7464 1.7875C13.9153 0.94312 16.3837 0.374524 20.0098 0.204286C23.6427 0.0442617 24.7969 0 34.0476 0Z" fill="#5F2A78"/>
</svg>
