<svg width="89" height="142" viewBox="0 0 89 142" fill="none" xmlns="http://www.w3.org/2000/svg">
<path d="M89 44.1764C89 70.2251 68.7727 74.2705 68.7727 98.5473C68.7727 111.08 56.1388 112.136 46.5227 112.136C38.2174 112.136 19.8794 108.985 19.8794 98.5392C19.8794 74.2746 0 70.2291 0 44.1764C0 19.7782 21.3802 0 44.8358 0C68.2994 0 89 19.7782 89 44.1764Z" fill="#FFD983"/>
<path d="M61.3576 130.911C61.3576 134.26 52.3201 141.024 44.5002 141.024C36.6804 141.024 27.6428 134.26 27.6428 130.911C27.6428 127.561 36.6763 128.888 44.5002 128.888C52.3201 128.888 61.3576 127.561 61.3576 130.911Z" fill="#CCD6DD"/>
<path d="M63.5418 41.0733C63.1664 40.6973 62.7206 40.399 62.2298 40.1955C61.7391 39.992 61.213 39.8872 60.6817 39.8872C60.1504 39.8872 59.6243 39.992 59.1335 40.1955C58.6427 40.399 58.1969 40.6973 57.8215 41.0733L44.4999 54.395L31.1782 41.0733C30.8026 40.6977 30.3567 40.3998 29.8659 40.1965C29.3752 39.9933 28.8492 39.8886 28.318 39.8886C27.7869 39.8886 27.2609 39.9933 26.7701 40.1965C26.2794 40.3998 25.8335 40.6977 25.4579 41.0733C25.0823 41.4489 24.7844 41.8948 24.5811 42.3856C24.3778 42.8763 24.2732 43.4023 24.2732 43.9335C24.2732 44.4647 24.3778 44.9906 24.5811 45.4814C24.7844 45.9721 25.0823 46.418 25.4579 46.7936L40.4544 61.7901V104.615C40.4544 105.688 40.8806 106.717 41.6393 107.476C42.398 108.235 43.4269 108.661 44.4999 108.661C45.5728 108.661 46.6018 108.235 47.3604 107.476C48.1191 106.717 48.5453 105.688 48.5453 104.615V61.7901L63.5418 46.7936C63.9178 46.4182 64.2161 45.9724 64.4197 45.4816C64.6232 44.9909 64.7279 44.4648 64.7279 43.9335C64.7279 43.4022 64.6232 42.8761 64.4197 42.3853C64.2161 41.8945 63.9178 41.4487 63.5418 41.0733Z" fill="#FFCC4D"/>
<path d="M68.7732 124.843C68.7732 126.988 67.9208 129.046 66.4035 130.564C64.8861 132.081 62.8282 132.933 60.6823 132.933H28.3187C26.1728 132.933 24.1149 132.081 22.5976 130.564C21.0802 129.046 20.2278 126.988 20.2278 124.843V100.57H68.7732V124.843Z" fill="#99AAB5"/>
<path d="M20.2233 128.888C19.2103 128.884 18.2355 128.5 17.4918 127.813C16.748 127.125 16.2893 126.183 16.2064 125.173C16.1236 124.164 16.4225 123.16 17.0442 122.36C17.6659 121.56 18.5651 121.022 19.5639 120.854L68.1094 112.763C68.6335 112.672 69.1704 112.687 69.6888 112.806C70.2073 112.925 70.697 113.145 71.1297 113.454C71.5624 113.763 71.9294 114.155 72.2095 114.608C72.4897 115.06 72.6773 115.563 72.7617 116.088C72.8491 116.612 72.8324 117.148 72.7126 117.665C72.5927 118.183 72.3721 118.671 72.0632 119.103C71.7544 119.535 71.3634 119.902 70.9127 120.183C70.4619 120.464 69.9602 120.653 69.4363 120.74L20.8908 128.831C20.6705 128.87 20.4471 128.889 20.2233 128.888ZM20.2233 112.706C19.2103 112.702 18.2355 112.319 17.4918 111.631C16.748 110.943 16.2893 110.001 16.2064 108.991C16.1236 107.982 16.4225 106.978 17.0442 106.178C17.6659 105.378 18.5651 104.841 19.5639 104.672L68.1094 96.5808C68.6335 96.4912 69.1701 96.5063 69.6884 96.6252C70.2066 96.7441 70.6961 96.9645 71.1287 97.2737C71.5613 97.5829 71.9283 97.9747 72.2086 98.4266C72.4888 98.8784 72.6768 99.3813 72.7617 99.9062C72.8491 100.43 72.8324 100.966 72.7126 101.483C72.5927 102.001 72.3721 102.489 72.0632 102.922C71.7544 103.354 71.3634 103.721 70.9127 104.001C70.4619 104.282 69.9602 104.472 69.4363 104.558L20.8908 112.649C20.6705 112.688 20.4471 112.707 20.2233 112.706Z" fill="#CCD6DD"/>
</svg>
