<svg width="194" height="135" viewBox="0 0 194 135" fill="none" xmlns="http://www.w3.org/2000/svg">
<path d="M172.444 15.0044H21.5556C15.8387 15.0044 10.3559 17.1087 6.31348 20.8545C2.27103 24.6003 0 29.6806 0 34.9779L0 109.879C0 115.176 2.27103 120.256 6.31348 124.002C10.3559 127.748 15.8387 129.852 21.5556 129.852H83.0751C85.8773 132.828 91.0345 134.845 97 134.845C102.965 134.845 108.128 132.828 110.925 129.852H172.444C178.161 129.852 183.644 127.748 187.687 124.002C191.729 120.256 194 115.176 194 109.879V34.9779C194 29.6806 191.729 24.6003 187.687 20.8545C183.644 17.1087 178.161 15.0044 172.444 15.0044Z" fill="#6F2C7A"/>
<path d="M107.778 114.872C107.778 117.521 106.642 120.061 104.621 121.934C102.6 123.806 99.8584 124.859 96.9999 124.859C94.1415 124.859 91.4001 123.806 89.3789 121.934C87.3577 120.061 86.2222 117.521 86.2222 114.872V24.9911C86.2222 22.3425 87.3577 19.8023 89.3789 17.9294C91.4001 16.0566 94.1415 15.0044 96.9999 15.0044C99.8584 15.0044 102.6 16.0566 104.621 17.9294C106.642 19.8023 107.778 22.3425 107.778 24.9911V114.872Z" fill="#292F33"/>
<path d="M97.0001 109.878C97.0001 112.527 95.8645 115.067 93.8433 116.94C91.8221 118.813 89.0807 119.865 86.2223 119.865H21.5556C18.6972 119.865 15.9558 118.813 13.9346 116.94C11.9133 115.067 10.7778 112.527 10.7778 109.878V19.9977C10.7778 17.3491 11.9133 14.8089 13.9346 12.936C15.9558 11.0632 18.6972 10.011 21.5556 10.011H86.2223C89.0807 10.011 91.8221 11.0632 93.8433 12.936C95.8645 14.8089 97.0001 17.3491 97.0001 19.9977V109.878Z" fill="#99AAB5"/>
<path d="M97.0001 109.879C91.6166 99.9019 77.2929 99.8919 75.4446 99.8919C64.6668 99.8919 48.5001 109.879 32.3334 109.879C26.9446 109.879 21.5557 105.405 21.5557 99.8919V19.9979C21.5557 14.4852 26.9446 10.0112 32.3334 10.0112C49.8743 10.0112 64.6668 0.0244141 75.4446 0.0244141C91.6112 0.0244141 97.0001 9.49185 97.0001 15.0045V109.879Z" fill="#E1E8ED"/>
<path d="M183.222 109.878C183.222 112.527 182.087 115.067 180.065 116.94C178.044 118.813 175.303 119.865 172.444 119.865H107.778C104.919 119.865 102.178 118.813 100.157 116.94C98.1355 115.067 97 112.527 97 109.878V19.9977C97 17.3491 98.1355 14.8089 100.157 12.936C102.178 11.0632 104.919 10.011 107.778 10.011H172.444C175.303 10.011 178.044 11.0632 180.065 12.936C182.087 14.8089 183.222 17.3491 183.222 19.9977V109.878Z" fill="#99AAB5"/>
<path d="M97 109.879C102.384 99.9019 116.707 99.8919 118.556 99.8919C129.333 99.8919 145.5 109.879 161.667 109.879C167.056 109.879 172.444 105.405 172.444 99.8919V19.9979C172.444 14.4852 167.056 10.0112 161.667 10.0112C144.12 10.0112 129.333 0.0244141 118.556 0.0244141C102.389 0.0244141 97 9.49185 97 15.0045V109.879Z" fill="#CCD6DD"/>
</svg>
