<svg width="69" height="69" viewBox="0 0 69 69" fill="none" xmlns="http://www.w3.org/2000/svg">
<path d="M18.7901 56.1582L21.2551 57.5984C25.4121 60.0228 30.1401 61.2956 34.9525 61.2857C40.3397 61.2857 45.6059 59.6882 50.0851 56.6953C54.5644 53.7023 58.0556 49.4483 60.1172 44.4712C62.1788 39.4941 62.7182 34.0174 61.6672 28.7337C60.6162 23.4501 58.022 18.5967 54.2127 14.7874C50.4034 10.9781 45.55 8.38389 40.2664 7.3329C34.9827 6.28191 29.506 6.82132 24.5289 8.8829C19.5518 10.9445 15.2978 14.4357 12.3048 18.9149C9.31185 23.3942 7.71436 28.6604 7.71436 34.0476C7.70442 38.8615 8.97845 43.5909 11.4051 47.7484L12.8419 50.2134L10.6186 58.3883L18.7901 56.1582ZM0.918452 68.0953L5.52169 51.1804C2.48836 45.9809 0.894781 40.0672 0.904832 34.0476C0.904832 15.2431 16.148 0 34.9525 0C53.757 0 69.0001 15.2431 69.0001 34.0476C69.0001 52.8521 53.757 68.0953 34.9525 68.0953C28.9355 68.105 23.0244 66.5126 17.8265 63.4818L0.918452 68.0953ZM22.6647 18.0725C23.1209 18.0384 23.5806 18.0384 24.0368 18.0589C24.2206 18.0725 24.4045 18.0929 24.5884 18.1133C25.1297 18.1746 25.7256 18.5049 25.9264 18.9611C26.9411 21.2627 27.9284 23.5814 28.8818 25.9068C29.0929 26.4244 28.9669 27.0883 28.5651 27.7352C28.3608 28.0655 28.0408 28.5285 27.6697 29.0018C27.2849 29.4955 26.4576 30.4011 26.4576 30.4011C26.4576 30.4011 26.1205 30.8029 26.2499 31.3034C26.2976 31.4941 26.4542 31.7698 26.5972 32.0014L26.7981 32.3248C27.6697 33.7787 28.8409 35.2529 30.2709 36.6421C30.6795 37.037 31.0778 37.4422 31.5068 37.8201C33.1003 39.2263 34.9048 40.3737 36.8523 41.2249L36.8693 41.2317C37.1587 41.3577 37.3052 41.4258 37.7273 41.6062C37.9384 41.6947 38.1563 41.7696 38.3777 41.8309C38.6064 41.8892 38.8472 41.8782 39.0697 41.7994C39.2921 41.7206 39.4862 41.5775 39.6272 41.3883C42.0922 38.4023 42.317 38.2083 42.3374 38.2083V38.2151C42.5086 38.0553 42.7121 37.9341 42.9341 37.8595C43.1561 37.7849 43.3914 37.7587 43.6244 37.7827C43.8287 37.7963 44.0364 37.8337 44.227 37.9188C46.035 38.7462 48.9937 40.0366 48.9937 40.0366L50.9753 40.9253C51.3089 41.0853 51.612 41.4632 51.6222 41.8275C51.6358 42.0556 51.6562 42.4233 51.5779 43.0975C51.469 43.9793 51.2034 45.0382 50.9378 45.5932C50.7558 45.9718 50.5144 46.319 50.2228 46.6214C49.8792 46.9821 49.5031 47.3103 49.0993 47.602C48.8201 47.8131 48.6737 47.9084 48.6737 47.9084C48.2501 48.1769 47.815 48.4269 47.3696 48.6575C46.493 49.1231 45.5248 49.3904 44.5335 49.4406C43.9036 49.4746 43.2737 49.5223 42.6404 49.4882C42.6132 49.4882 40.7065 49.192 40.7065 49.192C35.8658 47.9188 31.389 45.5335 27.6322 42.2259C26.8627 41.5483 26.1477 40.8197 25.4191 40.0945C22.3957 37.0813 20.1043 33.8297 18.7117 30.7586C18.0026 29.252 17.6197 27.6126 17.5882 25.9477C17.5754 23.8801 18.2523 21.8673 19.5119 20.2277C19.7604 19.9076 19.9953 19.574 20.4005 19.1892C20.8295 18.7807 21.1053 18.5628 21.4015 18.413C21.7953 18.2156 22.225 18.0998 22.6647 18.0725Z" fill="#5F2A78"/>
</svg>
